<svg xmlns="http://www.w3.org/2000/svg" viewBox="0 0 1200 750" width="1200" height="750">
  <defs>
    <linearGradient id="bg" x1="0" y1="0" x2="1" y2="1">
      <stop offset="0" stop-color="#64748b"/>
      <stop offset="1" stop-color="#0f172a"/>
    </linearGradient>
    <radialGradient id="glow" cx="0.2" cy="0.15" r="0.6">
      <stop offset="0" stop-color="#ffffff" stop-opacity="0.12"/>
      <stop offset="1" stop-color="#ffffff" stop-opacity="0"/>
    </radialGradient>
  </defs>
  <rect width="1200" height="750" fill="url(#bg)"/>
  <rect width="1200" height="750" fill="url(#glow)"/>
  <g stroke="#ffffff" stroke-opacity="0.05">
    <line x1="0" y1="150" x2="1200" y2="150"/>
    <line x1="0" y1="300" x2="1200" y2="300"/>
    <line x1="0" y1="450" x2="1200" y2="450"/>
    <line x1="0" y1="600" x2="1200" y2="600"/>
    <line x1="240" y1="0" x2="240" y2="750"/>
    <line x1="480" y1="0" x2="480" y2="750"/>
    <line x1="720" y1="0" x2="720" y2="750"/>
    <line x1="960" y1="0" x2="960" y2="750"/>
  </g>
  <path d="M260 420 L460 300 L660 420 L860 300"
        fill="none" stroke="#ffffff" stroke-opacity="0.28" stroke-width="1.5" stroke-linecap="round" stroke-linejoin="round"/>
  <g fill="#ffffff">
    <circle cx="260" cy="420" r="5" fill-opacity="0.55"/>
    <circle cx="460" cy="300" r="5" fill-opacity="0.55"/>
    <circle cx="660" cy="420" r="5" fill-opacity="0.55"/>
    <circle cx="860" cy="300" r="5" fill-opacity="0.55"/>
  </g>
</svg>
